<svg xmlns="http://www.w3.org/2000/svg" data-name="Layer 1" width="650" height="400" viewBox="0 0 650 400" xmlns:xlink="http://www.w3.org/1999/xlink">
  <path fill="#409EFF" opacity="0.2" d="M459.68,328.54c-61.89,60.27-300.13,60.27-362.02,0-30.95-30.13-30.95-79.03,0-109.16,61.89-60.27,300.13-60.27,362.02,0,30.95,30.13,30.95,79.03,0,109.16Z"/>
  <circle cx="278.67" cy="173.47" r="72.54" fill="#409EFF"/>
  <path fill="#fff" d="M278.67,260.93c-25.32,0-48.89-12.82-63.05-33.96-2.46-3.67-1.47-8.64,2.2-11.1,3.67-2.46,8.64-1.47,11.1,2.2,11.44,17.11,30.59,27.33,49.74,27.33s38.3-10.22,49.74-27.33c2.46-3.67,7.43-4.66,11.1-2.2,3.67,2.46,4.66,7.43,2.2,11.1-14.16,21.14-37.73,33.96-63.05,33.96Z"/>
  <circle cx="246.05" cy="155.95" r="15.57" fill="#fff"/>
  <circle cx="311.29" cy="155.95" r="15.57" fill="#fff"/>
  <path fill="#409EFF" d="M278.67,76.85c-53.3,0-96.63,43.32-96.63,96.63s43.32,96.63,96.63,96.63,96.63-43.32,96.63-96.63-43.32-96.63-96.63-96.63Zm0,177.77c-44.79,0-81.13-36.35-81.13-81.13s36.35-81.13,81.13-81.13,81.13,36.35,81.13,81.13-36.35,81.13-81.13,81.13Z"/>
  <path fill="#409EFF" d="M459.68,211.22c-50.27-48.98-247.77-58.98-341.63-20.32-26.09,10.74-8.05,22.12,41.61,34.31,85.34,20.91,228.74,32.8,300.02-13.99h0Z"/>
</svg> 